REM MD5 3cbeae152e54296995eceab0df2fc485
FILE "UEFA Champions League - Saison 1998-99 (Germany).bin" BINARY
  TRACK 01 MODE2/2352
    INDEX 01 00:00:00
  TRACK 02 AUDIO
    INDEX 00 41:23:64
    INDEX 01 41:25:64
  TRACK 03 AUDIO
    INDEX 00 46:19:69
    INDEX 01 46:21:69
REM LEADOUT 51:28:21
